# xmcd
#
# Track frame offsets:
#	150
#	25042
#	51732
#	90087
#	124832
#	152702
#	178215
#	204520
#	236597
#	266112
#	290117
#
# Disc length: 4292 seconds
#
# Revision: 0
# Processed by: cddbd v1.4PL0 Copyright (c) Steve Scherf et al.
# Submitted via: EasyCDDAExtractor 4.6.9.1
#
DISCID=9f10c20b
DTITLE=Butler Twins - The Butler Twins
DYEAR=1995
DGENRE=Blues
TTITLE0=I Finally Found Me A Girl
TTITLE1=My Baby's Coming Home
TTITLE2=Not Gonna Worry About Tomorrow
TTITLE3=I Know You Don't Love Me Baby
TTITLE4=1-900
TTITLE5=You Don't Need Me
TTITLE6=Going Down A Long Country Road
TTITLE7=Crack House Baby
TTITLE8=That Old Devil (Crossroads)
TTITLE9=Bring It On Back To Me
TTITLE10=Travellin' Down South
EXTD=
EXTT0=
EXTT1=
EXTT2=
EXTT3=
EXTT4=
EXTT5=
EXTT6=
EXTT7=
EXTT8=
EXTT9=
EXTT10=
PLAYORDER=
